<?xml version="1.0" standalone="no"?>
<!DOCTYPE svg PUBLIC "-//W3C//DTD SVG 20010904//EN"
 "http://www.w3.org/TR/2001/REC-SVG-20010904/DTD/svg10.dtd">
<svg version="1.0" xmlns="http://www.w3.org/2000/svg"
 width="218.000000pt" height="67.000000pt" viewBox="0 0 218.000000 67.000000"
 preserveAspectRatio="xMidYMid meet">

<g transform="translate(0.000000,67.000000) scale(0.100000,-0.100000)"
fill="#000000" stroke="none">
<path d="M1061 471 l-34 -18 52 -5 c69 -7 92 -30 99 -98 5 -51 4 -52 -43 -96
-57 -53 -86 -62 -120 -40 -37 25 -30 37 11 20 51 -21 66 -3 20 24 -32 19 -50
46 -71 107 -6 17 -10 15 -26 -20 -24 -52 -24 -102 1 -142 39 -65 118 -57 195
21 91 90 102 211 24 252 -37 18 -66 17 -108 -5z"/>
<path d="M120 355 l0 -85 85 0 c69 0 85 3 85 15 0 12 -14 15 -65 15 -63 0 -65
1 -65 25 0 23 4 25 41 25 52 0 48 24 -4 28 -29 3 -37 7 -37 23 0 17 7 19 65
19 37 0 65 4 65 10 0 6 -35 10 -85 10 l-85 0 0 -85z"/>
<path d="M362 343 l3 -68 64 0 c43 0 66 4 69 13 3 9 -12 12 -52 12 l-56 0 0
55 c0 43 -3 55 -15 55 -13 0 -15 -12 -13 -67z"/>
<path d="M587 373 c-55 -87 -62 -116 -21 -84 34 27 84 27 115 0 13 -11 25 -16
27 -10 6 17 -68 131 -84 131 -7 0 -24 -17 -37 -37z m53 -12 c15 -28 13 -31
-20 -31 -28 0 -29 1 -18 25 13 30 24 32 38 6z"/>
<path d="M762 343 l3 -68 45 -3 c24 -2 59 -1 77 3 l32 6 -2 62 -2 62 -78 3
-78 3 3 -68z m126 30 c-3 -14 -13 -18 -48 -18 -35 0 -45 4 -48 18 -3 14 4 17
48 17 44 0 51 -3 48 -17z m2 -58 c0 -11 -12 -15 -50 -15 -38 0 -50 4 -50 15 0
11 12 15 50 15 38 0 50 -4 50 -15z"/>
<path d="M1250 340 c0 -45 4 -69 10 -65 6 3 10 15 10 26 0 33 27 32 75 -2 25
-18 48 -29 52 -25 5 5 -2 15 -14 23 -29 19 -29 33 -2 33 17 0 20 5 17 38 l-3
37 -72 3 -73 3 0 -71z m120 30 c0 -17 -7 -20 -50 -20 -35 0 -50 4 -50 13 0 22
11 27 57 27 36 0 43 -3 43 -20z"/>
<path d="M1476 349 c-41 -68 -43 -91 -7 -60 31 27 81 27 114 1 14 -11 28 -17
31 -12 8 14 -68 132 -85 132 -10 0 -32 -26 -53 -61z m72 6 c11 -24 10 -25 -18
-25 -33 0 -35 3 -20 31 14 26 25 24 38 -6z"/>
<path d="M1630 400 c0 -5 16 -10 35 -10 l34 0 3 -55 c2 -30 8 -55 13 -55 6 0
11 25 13 55 l3 55 34 0 c19 0 35 5 35 10 0 6 -35 10 -85 10 -50 0 -85 -4 -85
-10z"/>
<path d="M1846 345 c-40 -69 -42 -93 -3 -57 31 29 83 29 114 0 38 -36 38 -13
-1 56 -24 42 -43 66 -54 66 -11 0 -32 -25 -56 -65z m72 10 c11 -24 10 -25 -18
-25 -33 0 -35 3 -20 31 14 26 25 24 38 -6z"/>
<path d="M182 120 c0 -19 2 -27 5 -17 2 9 2 25 0 35 -3 9 -5 1 -5 -18z"/>
<path d="M507 143 c-11 -10 -8 -45 3 -38 5 3 7 12 4 20 -4 8 3 15 18 18 20 4
21 4 2 6 -11 0 -24 -2 -27 -6z"/>
<path d="M698 143 c14 -3 22 -12 22 -25 0 -16 -5 -19 -25 -16 -14 3 -25 1 -25
-3 0 -5 14 -9 31 -9 27 0 30 3 27 28 -2 21 -9 27 -28 29 -22 1 -22 1 -2 -4z"/>
<path d="M868 143 c7 -3 16 -2 19 1 4 3 -2 6 -13 5 -11 0 -14 -3 -6 -6z"/>
<path d="M1408 143 c6 -2 18 -2 25 0 6 3 1 5 -13 5 -14 0 -19 -2 -12 -5z"/>
<path d="M1706 141 c-4 -5 3 -7 14 -4 23 6 26 13 6 13 -8 0 -17 -4 -20 -9z"/>
<path d="M320 125 c0 -8 6 -12 14 -9 8 3 17 1 21 -5 8 -14 25 -14 25 0 0 5 -4
8 -9 5 -5 -3 -14 1 -21 9 -16 19 -30 19 -30 0z"/>
<path d="M1030 131 c0 -9 30 -24 36 -18 2 1 -6 8 -16 15 -11 7 -20 8 -20 3z"/>
<path d="M1230 120 c-6 -11 -9 -20 -8 -20 2 0 11 9 21 20 9 11 13 20 7 20 -5
0 -14 -9 -20 -20z"/>
<path d="M1904 124 c9 -8 16 -20 16 -26 0 -6 3 -9 6 -6 8 9 -14 48 -27 48 -6
0 -3 -7 5 -16z"/>
<path d="M850 120 c0 -4 11 -10 25 -12 14 -3 25 -2 25 2 0 4 -11 10 -25 12
-14 3 -25 2 -25 -2z"/>
<path d="M1260 111 c0 -6 4 -13 10 -16 6 -3 7 1 4 9 -7 18 -14 21 -14 7z"/>
<path d="M1875 109 c-4 -6 -5 -12 -2 -15 2 -3 7 2 10 11 7 17 1 20 -8 4z"/>
<path d="M1700 98 c0 -5 11 -8 25 -8 14 0 25 3 25 8 0 4 -11 7 -25 7 -14 0
-25 -3 -25 -7z"/>
</g>
</svg>
