<?xml version="1.0" standalone="no"?>
<!DOCTYPE svg PUBLIC "-//W3C//DTD SVG 20010904//EN"
 "http://www.w3.org/TR/2001/REC-SVG-20010904/DTD/svg10.dtd">
<svg version="1.0" xmlns="http://www.w3.org/2000/svg"
 width="469.000000pt" height="100.000000pt" viewBox="0 0 469.000000 100.000000"
 preserveAspectRatio="xMidYMid meet">

<g transform="translate(0.000000,100.000000) scale(0.100000,-0.100000)"
fill="#000000" stroke="none">
<path d="M2408 981 c-58 -19 -142 -63 -153 -81 -4 -6 3 -6 20 0 42 16 122 12
196 -11 91 -28 139 -79 163 -174 20 -79 20 -117 1 -181 -19 -65 -53 -110 -123
-162 -82 -61 -138 -85 -197 -85 -61 0 -105 21 -141 68 -28 38 -26 59 4 32 9
-9 38 -25 62 -36 53 -24 162 -28 199 -7 23 13 22 14 -28 26 -62 15 -155 74
-194 125 -56 71 -81 142 -82 232 0 46 -1 83 -2 83 -9 0 -50 -87 -74 -162 -93
-279 -7 -472 208 -472 63 1 82 6 148 38 140 69 248 196 301 353 66 198 8 374
-137 417 -67 20 -100 19 -171 -3z"/>
<path d="M0 670 l0 -210 225 0 225 0 0 35 0 35 -172 2 -173 3 -3 53 -3 52 100
0 101 0 0 35 0 34 -97 3 -98 3 -3 48 -3 47 170 0 171 0 0 35 0 35 -220 0 -220
0 0 -210z"/>
<path d="M607 804 c-4 -4 -7 -83 -7 -176 l0 -168 183 0 184 0 -5 30 -4 30
-134 0 -133 0 -3 143 -3 142 -35 3 c-20 2 -39 0 -43 -4z"/>
<path d="M1121 641 c-56 -94 -101 -172 -101 -175 0 -4 18 -6 40 -6 36 0 42 4
57 35 l17 35 121 0 122 0 18 -34 c17 -31 24 -35 67 -38 26 -1 48 -2 48 -1 0 1
-48 81 -106 177 l-105 176 -39 0 -38 0 -101 -169z m177 30 c22 -38 38 -72 34
-75 -7 -7 -152 -8 -152 -1 0 9 70 145 74 145 2 0 22 -31 44 -69z"/>
<path d="M1608 804 c-5 -4 -8 -83 -8 -176 l0 -168 178 0 c215 0 222 3 222 85
0 52 -16 85 -42 85 -6 0 1 9 16 21 21 17 26 29 26 68 0 84 -3 86 -207 89 -98
2 -181 0 -185 -4z m310 -90 c5 -48 -13 -55 -129 -52 l-102 3 0 38 c1 20 2 39
2 42 1 3 52 4 114 3 l112 -3 3 -31z m-3 -149 l0 -40 -111 -3 -112 -3 -4 41
c-2 23 -1 43 1 46 3 2 55 3 115 2 l111 -3 0 -40z"/>
<path d="M2800 636 l0 -176 40 0 40 0 0 65 0 65 41 0 c37 0 50 -7 113 -64 70
-62 73 -64 134 -68 34 -1 62 -3 62 -2 0 1 -37 30 -81 65 l-82 64 53 5 c67 7
80 25 80 106 0 46 -5 68 -19 85 -19 23 -24 24 -200 27 l-181 4 0 -176z m308
105 c8 -5 12 -23 10 -47 l-3 -39 -117 -3 -118 -3 0 51 0 50 108 0 c59 0 113
-4 120 -9z"/>
<path d="M3365 634 c-58 -97 -105 -177 -105 -178 0 -1 21 0 46 2 40 4 47 8 62
38 l16 34 121 0 120 0 19 -34 c16 -31 23 -35 67 -38 27 -1 48 0 47 3 -2 3 -50
83 -107 178 l-104 171 -38 0 -38 0 -106 -176z m179 41 c20 -36 36 -70 36 -75
0 -6 -33 -10 -75 -10 -41 0 -75 4 -75 8 0 9 70 142 75 142 2 0 19 -29 39 -65z"/>
<path d="M3760 781 l0 -30 83 -3 82 -3 3 -142 3 -143 39 0 39 0 3 143 3 142
88 3 88 3 -3 27 -3 27 -212 3 -213 2 0 -29z"/>
<path d="M4383 783 c-11 -15 -50 -80 -88 -143 -37 -63 -77 -130 -87 -147 l-20
-33 42 0 c36 0 43 4 61 35 l21 35 118 0 118 0 22 -35 c19 -31 26 -35 66 -35
24 0 44 3 43 8 0 4 -46 81 -102 172 -100 161 -103 165 -139 168 -30 3 -39 -2
-55 -25z m90 -112 c20 -38 37 -72 37 -75 0 -3 -36 -6 -81 -6 -44 0 -79 3 -77
8 26 55 74 142 78 142 3 0 22 -31 43 -69z"/>
<path d="M2802 195 c-21 -47 -6 -49 26 -5 21 28 21 30 4 30 -10 0 -24 -11 -30
-25z"/>
<path d="M150 85 c0 -69 3 -85 15 -85 12 0 15 16 15 85 0 69 -3 85 -15 85 -12
0 -15 -16 -15 -85z"/>
<path d="M490 70 c0 -56 3 -70 15 -70 11 0 15 12 15 45 0 25 3 45 6 45 3 0 29
-20 57 -45 29 -25 56 -44 62 -42 5 2 11 34 13 70 2 55 0 67 -13 67 -11 0 -15
-11 -15 -40 0 -22 -3 -40 -7 -40 -4 0 -28 18 -54 40 -69 58 -79 55 -79 -30z"/>
<path d="M950 70 c0 -54 3 -70 14 -70 9 0 16 12 18 27 2 22 9 29 31 31 15 2
27 7 27 12 0 5 -12 10 -27 12 -17 2 -28 9 -28 18 0 11 14 16 53 18 77 4 63 22
-18 22 l-70 0 0 -70z"/>
<path d="M1362 73 l3 -68 68 -3 c89 -4 99 4 95 77 l-3 56 -83 3 -83 3 3 -68z
m136 0 l3 -43 -55 0 -56 0 0 46 0 45 53 -3 52 -3 3 -42z"/>
<path d="M1820 70 c0 -56 3 -70 15 -70 9 0 15 9 15 24 0 38 17 40 56 7 19 -17
45 -31 57 -31 21 1 21 1 -5 25 -33 29 -34 31 -7 38 16 4 20 12 17 39 l-3 33
-72 3 -73 3 0 -71z m120 30 c0 -17 -7 -20 -45 -20 -38 0 -45 3 -45 20 0 17 7
20 45 20 38 0 45 -3 45 -20z"/>
<path d="M2260 70 c0 -56 3 -70 15 -70 11 0 15 12 15 47 l0 48 27 -38 c14 -20
29 -37 32 -37 3 0 17 17 31 37 l25 37 3 -47 c2 -33 7 -47 18 -47 11 0 14 16
14 70 0 83 -12 90 -59 33 l-31 -38 -31 38 c-47 57 -59 50 -59 -33z"/>
<path d="M2756 75 c-20 -36 -36 -68 -36 -70 0 -12 31 -3 36 10 4 10 21 15 54
15 33 0 50 -5 54 -15 5 -15 36 -22 36 -8 0 3 -16 35 -35 70 -47 83 -62 82
-109 -2z m72 10 c11 -24 10 -25 -18 -25 -28 0 -29 1 -18 25 6 14 14 25 18 25
4 0 12 -11 18 -25z"/>
<path d="M3160 130 c0 -5 14 -10 30 -10 l30 0 0 -61 c0 -51 3 -60 17 -57 12 2
16 15 17 58 1 55 1 55 34 58 64 6 30 22 -48 22 -47 0 -80 -4 -80 -10z"/>
<path d="M3600 70 c0 -56 3 -70 15 -70 12 0 15 14 15 70 0 56 -3 70 -15 70
-12 0 -15 -14 -15 -70z"/>
<path d="M3926 124 c-10 -27 -7 -99 6 -112 7 -7 38 -12 70 -12 52 0 60 3 67
22 5 15 4 26 -3 30 -17 12 -26 9 -26 -7 0 -11 -11 -15 -40 -15 l-40 0 0 45 0
45 40 0 c30 0 40 -4 40 -16 0 -11 5 -14 16 -10 9 3 17 6 19 6 2 0 1 9 -2 20
-5 18 -14 20 -73 20 -53 0 -69 -4 -74 -16z"/>
<path d="M4385 77 c-19 -35 -35 -67 -35 -70 0 -14 28 -7 34 8 7 20 89 20 106
0 13 -15 44 -21 38 -7 -1 4 -18 35 -37 70 -44 81 -60 81 -106 -1z m65 24 c0
-5 3 -16 6 -25 5 -12 0 -16 -20 -16 -30 0 -31 3 -14 30 13 21 28 27 28 11z"/>
</g>
</svg>
